HIERARCHY
ROOT RootJoint
{
    OFFSET   0.000000   0.000000   0.000000
    CHANNELS 6 Xposition Yposition Zposition Xrotation Yrotation Zrotation
    JOINT pelvis_lowerback
    {
        OFFSET   0.000000   0.093605   0.000000
        CHANNELS 3 Xrotation Yrotation Zrotation
        JOINT lowerback_torso
        {
            OFFSET   0.000000   0.100000   0.000000
            CHANNELS 3 Xrotation Yrotation Zrotation
            JOINT torso_head
            {
                OFFSET   0.000000   0.282350   0.000000
                CHANNELS 3 Xrotation Yrotation Zrotation
                End Site
                {
                    OFFSET   0.000000   0.192650   0.000000
                }
            }
            JOINT rTorso_Clavicle
            {
                OFFSET  -0.001000   0.157500   0.000000
                CHANNELS 3 Xrotation Yrotation Zrotation
                JOINT rShoulder
                {
                    OFFSET  -0.117647   0.000000   0.000000
                    CHANNELS 3 Xrotation Yrotation Zrotation
                    JOINT rElbow
                    {
                        OFFSET  -0.245000   0.000000   0.000000
                        CHANNELS 3 Xrotation Yrotation Zrotation
                        JOINT rWrist
                        {
                            OFFSET  -0.240000   0.000000   0.000000
                            CHANNELS 3 Xrotation Yrotation Zrotation
                            End Site
                            {
                                OFFSET  -0.116353  -0.002500   0.000000
                            }
                        }
                    }
                }
            }
            JOINT lTorso_Clavicle
            {
                OFFSET   0.001000   0.157500   0.000000
                CHANNELS 3 Xrotation Yrotation Zrotation
                JOINT lShoulder
                {
                    OFFSET   0.117647   0.000000   0.000000
                    CHANNELS 3 Xrotation Yrotation Zrotation
                    JOINT lElbow
                    {
                        OFFSET   0.245000   0.000000   0.000000
                        CHANNELS 3 Xrotation Yrotation Zrotation
                        JOINT lWrist
                        {
                            OFFSET   0.240000   0.000000   0.000000
                            CHANNELS 3 Xrotation Yrotation Zrotation
                            End Site
                            {
                                OFFSET   0.116353  -0.002500   0.000000
                            }
                        }
                    }
                }
            }
        }
    }
    JOINT rHip
    {
        OFFSET  -0.100000  -0.051395   0.000000
        CHANNELS 3 Xrotation Yrotation Zrotation
        JOINT rKnee
        {
            OFFSET   0.000000  -0.410000   0.000000
            CHANNELS 3 Xrotation Yrotation Zrotation
            JOINT rAnkle
            {
                OFFSET   0.000000  -0.390000   0.000000
                CHANNELS 3 Xrotation Yrotation Zrotation
                JOINT rToeJoint
                {
                    OFFSET   0.000000  -0.050000   0.130000
                    CHANNELS 3 Xrotation Yrotation Zrotation
                    End Site
                    {
                        OFFSET  -0.010000   0.002000   0.060000
                    }
                }
            }
        }
    }
    JOINT lHip
    {
        OFFSET   0.100000  -0.051395   0.000000
        CHANNELS 3 Xrotation Yrotation Zrotation
        JOINT lKnee
        {
            OFFSET   0.000000  -0.410000   0.000000
            CHANNELS 3 Xrotation Yrotation Zrotation
            JOINT lAnkle
            {
                OFFSET   0.000000  -0.390000   0.000000
                CHANNELS 3 Xrotation Yrotation Zrotation
                JOINT lToeJoint
                {
                    OFFSET   0.000000  -0.050000   0.130000
                    CHANNELS 3 Xrotation Yrotation Zrotation
                    End Site
                    {
                        OFFSET   0.010000   0.002000   0.060000
                    }
                }
            }
        }
    }
}
MOTION
Frames: 5
Frame Time:   0.008333
 -2.462458   0.899680   3.944118  -2.286059 -26.047171   0.445103  27.603664  -2.229346   2.076262  -0.585467  -3.050837  -0.212810  -1.966068  -0.620203  -3.590191  -3.415594  17.170644   2.201108 -13.333966  14.913868  48.566934  -0.003228  32.536044   0.003953  -6.136166   3.166205  -6.682120  -6.493094 -22.209384  -4.352427 -19.666830 -14.285917 -49.951369  -0.003689 -30.739335  -0.001864  -8.225512  -4.687382  18.515984 -17.463764 -12.138212  -8.855477  25.652800  -0.000854  -0.000442  -6.626659  -7.690799  -0.647550   0.001757   0.000001  -0.000000  -5.371988  15.527353  10.449555  21.279511   0.000886   0.003335 -10.133035  11.500372   0.079081  -3.038334   0.001077   0.002550
 -2.462632   0.900245   3.945366  -2.280694 -26.143701   0.472614  27.216038  -2.194476   2.014466  -0.559143  -3.055170  -0.240545  -1.872601  -0.639766  -3.521200  -3.342976  16.916762   2.253289 -13.135777  14.839888  48.612023  -0.003115  32.776352   0.003899  -6.134203   3.211140  -6.677867  -6.428770 -22.011321  -4.364115 -19.555715 -14.324104 -49.974661  -0.003488 -30.995165  -0.001831  -8.216761  -4.702064  18.565557 -17.248512 -12.043760  -8.846035  25.360801  -0.000806  -0.000377  -6.539801  -7.703663  -0.598776   0.001532   0.000000  -0.000000  -5.132190  15.337114  10.347689  21.084623   0.000864   0.003200  -9.919374  11.485365   0.093551  -3.373319   0.001066   0.003050
 -2.462748   0.900774   3.946604  -2.282219 -26.255564   0.495130  26.847000  -2.157416   1.946418  -0.531712  -3.055919  -0.273220  -1.783459  -0.657692  -3.456747  -3.267342  16.671410   2.304719 -12.944173  14.765282  48.657121  -0.002979  32.997799   0.003787  -6.135837   3.243627  -6.679168  -6.362554 -21.816299  -4.374863 -19.446344 -14.354321 -49.994640  -0.003256 -31.232298  -0.001776  -8.210233  -4.714643  18.622131 -17.038114 -11.945036  -8.838056  25.079893  -0.000762  -0.000293  -6.454084  -7.704281  -0.552713   0.002108   0.000000  -0.000000  -4.902808  15.149207  10.251778  20.924045   0.000820   0.003013  -9.717554  11.464778   0.103891  -3.730938   0.001050   0.003567
 -2.462801   0.901268   3.947821  -2.287354 -26.370540   0.513595  26.497784  -2.123538   1.877530  -0.505905  -3.056981  -0.307388  -1.700721  -0.674306  -3.397276  -3.191612  16.436887   2.353550 -12.760725  14.692146  48.699849  -0.002830  33.202419   0.003632  -6.138798   3.263456  -6.680660  -6.296426 -21.628825  -4.384429 -19.340216 -14.379060 -50.012161  -0.003001 -31.451869  -0.001695  -8.206544  -4.719402  18.680822 -16.835430 -11.847634  -8.833118  24.811353  -0.000723  -0.000212  -6.370954  -7.699048  -0.510547   0.003922   0.000000  -0.000000  -4.685321  14.972412  10.159983  20.785277   0.000759   0.002790  -9.532772  11.444281   0.112607  -4.084153   0.001004   0.003935
 -2.462791   0.901726   3.949009  -2.294185 -26.483251   0.528800  26.168324  -2.093838   1.809510  -0.482339  -3.059715  -0.341715  -1.624005  -0.689771  -3.342148  -3.117623  16.213978   2.399432 -12.586402  14.621388  48.739725  -0.002674  33.391913   0.003447  -6.142635   3.273930  -6.682912  -6.232225 -21.450976  -4.393399 -19.238784 -14.400205 -50.027967  -0.002737 -31.655649  -0.001597  -8.205024  -4.717972  18.738821 -16.641912 -11.753590  -8.831583  24.555294  -0.000689  -0.000143  -6.290630  -7.691283  -0.472090   0.006951   0.000001  -0.000000  -4.480106  14.807252  10.071514  20.662259   0.000689   0.002554  -9.366139  11.424583   0.120012  -4.422274   0.000928   0.004134
